<svg height="512pt" viewBox="0 -76 512 512" width="512pt" xmlns="http://www.w3.org/2000/svg"><path d="m455.480469 303.214844 42.984375 49.496094h-320.707032l129.8125-74.488282c48.941407-28.082031 110.914063-17.613281 147.910157 24.992188zm0 0" fill="#cbd359"/><path d="m498.46875 352.714844h-28.71875l-42.988281-49.5c-19.75-22.742188-46.621094-36.332032-74.832031-39.78125 38.019531-4.660156 77.148437 9.378906 103.550781 39.78125zm0 0" fill="#bec121"/><path d="m114.226562 236.761719-100.691406 115.949219h430.695313l-231.171875-132.648438c-32.699219-18.765625-74.109375-11.769531-98.832032 16.699219zm0 0" fill="#3ad391"/><path d="m444.230469 352.714844h-42.761719l-231.167969-132.652344c-5.730469-3.289062-11.722656-5.789062-17.851562-7.519531 19.839843-5.578125 41.679687-3.339844 60.609375 7.519531zm0 0" fill="#2db37a"/><path d="m262.863281 303.683594 76.792969 49.027344h-190.617188l75.132813-48.863282c11.746094-7.640625 26.878906-7.707031 38.691406-.164062zm0 0" fill="#e6f073"/><path d="m339.660156 352.714844h-32.050781l-76.789063-49.03125c-1.039062-.660156-2.109374-1.269532-3.199218-1.820313 11.160156-5.601562 24.558594-5 35.238281 1.820313zm0 0" fill="#bec121"/><path d="m504.5 360.210938h-497c-4.144531 0-7.5-3.359376-7.5-7.5 0-4.140626 3.355469-7.5 7.5-7.5h497c4.144531 0 7.5 3.359374 7.5 7.5 0 4.140624-3.355469 7.5-7.5 7.5zm0 0" fill="#65efa7"/><path d="m399.707031 148.246094c0 18.578125-15.058593 33.636718-33.636719 33.636718-18.578124 0-33.636718-15.058593-33.636718-33.636718 0-18.574219 15.058594-33.636719 33.636718-33.636719 18.578126 0 33.636719 15.0625 33.636719 33.636719zm0 0" fill="#ff9c26"/><g fill="#ffbd48"><path d="m366.070312 84.960938c-4.144531 0-7.5-3.359376-7.5-7.5v-5.523438c0-4.140625 3.355469-7.5 7.5-7.5 4.144532 0 7.5 3.359375 7.5 7.5v5.523438c0 4.140624-3.355468 7.5-7.5 7.5zm0 0"/><path d="m366.070312 232.054688c-4.144531 0-7.5-3.359376-7.5-7.5v-5.519532c0-4.140625 3.355469-7.5 7.5-7.5 4.144532 0 7.5 3.359375 7.5 7.5v5.519532c0 4.144531-3.355468 7.5-7.5 7.5zm0 0"/><path d="m416.125 105.691406c-1.917969 0-3.839844-.730468-5.304688-2.195312-2.929687-2.929688-2.929687-7.679688 0-10.605469l3.902344-3.90625c2.929688-2.925781 7.679688-2.925781 10.609375 0 2.929688 2.929687 2.929688 7.679687 0 10.609375l-3.902343 3.902344c-1.464844 1.464844-3.386719 2.195312-5.304688 2.195312zm0 0"/><path d="m312.113281 209.703125c-1.921875 0-3.839843-.730469-5.304687-2.195313-2.929688-2.929687-2.929688-7.675781 0-10.605468l3.902344-3.902344c2.925781-2.929688 7.675781-2.929688 10.605468-.003906 2.929688 2.929687 2.929688 7.679687 0 10.609375l-3.902344 3.902343c-1.460937 1.464844-3.382812 2.195313-5.300781 2.195313zm0 0"/><path d="m442.378906 155.746094h-5.519531c-4.144531 0-7.5-3.355469-7.5-7.5 0-4.140625 3.355469-7.5 7.5-7.5h5.519531c4.140625 0 7.5 3.359375 7.5 7.5 0 4.144531-3.359375 7.5-7.5 7.5zm0 0"/><path d="m295.28125 155.746094h-5.519531c-4.144531 0-7.5-3.355469-7.5-7.5 0-4.140625 3.355469-7.5 7.5-7.5h5.519531c4.144531 0 7.5 3.359375 7.5 7.5 0 4.144531-3.355469 7.5-7.5 7.5zm0 0"/><path d="m420.027344 209.703125c-1.917969 0-3.839844-.730469-5.304688-2.195313l-3.902344-3.902343c-2.929687-2.929688-2.929687-7.679688 0-10.605469 2.929688-2.929688 7.679688-2.929688 10.609376 0l3.902343 3.902344c2.929688 2.929687 2.929688 7.675781 0 10.605468-1.464843 1.464844-3.386719 2.195313-5.304687 2.195313zm0 0"/><path d="m316.015625 105.691406c-1.921875 0-3.839844-.730468-5.304687-2.195312l-3.902344-3.902344c-2.929688-2.929688-2.925782-7.679688 0-10.609375 2.933594-2.925781 7.679687-2.925781 10.605468 0l3.902344 3.90625c2.929688 2.925781 2.929688 7.675781 0 10.605469-1.464844 1.464844-3.382812 2.195312-5.300781 2.195312zm0 0"/></g><path d="m214.488281 167.714844h-134.488281c-4.144531 0-7.5-3.355469-7.5-7.5 0-4.140625 3.355469-7.5 7.5-7.5h134.488281c3.800781 0 6.894531-3.09375 6.894531-6.894532 0-3.804687-3.09375-6.894531-6.894531-6.894531h-149.449219c-13.929687 0-25.261718-11.332031-25.261718-25.261719 0-13.929687 11.332031-25.261718 25.261718-25.261718h67.960938c4.144531 0 7.5 3.359375 7.5 7.5 0 4.144531-3.355469 7.5-7.5 7.5h-67.960938c-5.65625 0-10.261718 4.605468-10.261718 10.261718s4.605468 10.261719 10.261718 10.261719h149.449219c12.070313 0 21.894531 9.820313 21.894531 21.894531 0 12.074219-9.820312 21.894532-21.894531 21.894532zm0 0" fill="#a1edff"/><path d="m245.535156 79.3125h-55.476562c-12.074219 0-21.898438-9.824219-21.898438-21.898438 0-12.070312 9.824219-21.894531 21.898438-21.894531h128.519531c5.65625 0 10.261719-4.601562 10.261719-10.257812 0-5.660157-4.605469-10.261719-10.261719-10.261719h-55.617187c-4.144532 0-7.5-3.359375-7.5-7.5s3.355468-7.5 7.5-7.5h55.617187c13.929687 0 25.261719 11.332031 25.261719 25.261719 0 13.925781-11.332032 25.257812-25.261719 25.257812h-128.519531c-3.804688 0-6.898438 3.09375-6.898438 6.894531 0 3.804688 3.09375 6.898438 6.898438 6.898438h55.476562c4.144532 0 7.5 3.359375 7.5 7.5s-3.355468 7.5-7.5 7.5zm0 0" fill="#a1edff"/><path d="m107.5 327.449219c-2.898438 0-5.660156-1.691407-6.886719-4.523438l-1.980469-4.578125c-1.644531-3.800781.105469-8.214844 3.90625-9.859375 3.804688-1.644531 8.21875.105469 9.863282 3.90625l1.976562 4.574219c1.644532 3.804688-.101562 8.21875-3.90625 9.863281-.96875.417969-1.980468.617188-2.972656.617188zm0 0" fill="#2db37a"/><path d="m129.644531 327.417969c-1.011719 0-2.039062-.207031-3.023437-.640625-3.789063-1.671875-5.507813-6.097656-3.835938-9.886719l2.019532-4.585937c1.671874-3.789063 6.097656-5.503907 9.890624-3.835938 3.789063 1.671875 5.507813 6.097656 3.835938 9.890625l-2.019531 4.582031c-1.242188 2.804688-3.988281 4.476563-6.867188 4.476563zm0 0" fill="#2db37a"/><path d="m188.105469 283.988281c-2.898438 0-5.660157-1.695312-6.886719-4.523437l-1.980469-4.578125c-1.644531-3.800781.105469-8.21875 3.90625-9.863281 3.804688-1.644532 8.21875.109374 9.863281 3.90625l1.976563 4.578124c1.648437 3.800782-.101563 8.21875-3.90625 9.859376-.96875.421874-1.976563.621093-2.972656.621093zm0 0" fill="#65efa7"/><path d="m210.25 283.953125c-1.011719 0-2.039062-.203125-3.023438-.636719-3.789062-1.671875-5.507812-6.097656-3.835937-9.886718l2.019531-4.585938c1.671875-3.789062 6.097656-5.507812 9.886719-3.835938 3.792969 1.667969 5.507813 6.097657 3.839844 9.886719l-2.019531 4.582031c-1.238282 2.808594-3.984376 4.476563-6.867188 4.476563zm0 0" fill="#65efa7"/></svg>