<svg id="Capa_1" enable-background="new 0 0 512 512" height="512" viewBox="0 0 512 512" width="512" xmlns="http://www.w3.org/2000/svg"><g><g><path d="m414.807 469.358-140.674-294.304c-6.729-14.795-14.421-34.552-18.133-54.16-7.377 38.972-30.482 78.541-30.482 78.541l-60.083 94.203-57.114 161.084-19.062 44.778 332.961-10z" fill="#cf9875"/><path d="m422.22 489.5h-322.961l9.062-24.777 147.679-61.514 158.807 66.149-6.52-17.716-60.842-158.481-60.963-93.726s-5.704-9.771-12.349-24.381c-1.642 16.242-2.651 32.927-2.651 49.461 0 4.473 0 8.849.001 13.116-15.335-3.374-30.194-1.775-46.069 4.838v30c15.88-6.615 30.743-8.213 46.083-4.835.021 30.313.058 50.044.058 50.044l-11.846-6.739c-2.299-1.308-5.118-1.308-7.417 0l-26.773 15.231-60.083-32.531-.984 1.543-60.738 156.46-19.455 52.858h343.482z" fill="#bd7f54"/><path d="m155.863 199.435-32.857-10c-2.491 28.894-14.415 71.6-14.415 103.726 0 53.379 10.121 103.767 10.121 103.767l45.842-36.079c0-17.02 0-39.193 0-67.688.001-32.126-3.787-64.832-8.691-93.726z" fill="#e0bba4"/><path d="m118.591 293.162c0-32.127 1.924-64.833 4.415-93.726v-10l-10.723 10c-4.904 28.894-8.692 61.6-8.692 93.726 0 53.379.121 117.3.121 117.3l60.842.317v-49.929l-45.842 26.079c.001 0-.121-40.388-.121-93.767z" fill="#cf9875"/><path d="m155.863 199.435c-9.01-53.086-21.79-93.289-21.79-93.289s-11.067 41.034-11.067 93.289z" fill="#e9edf1"/><path d="m134.073 106.146s-12.78 40.203-21.79 93.289h10.723c4.576-53.086 11.067-93.289 11.067-93.289z" fill="#c8d2dc"/><path d="m216.826 130.789-32.857-10c-2.491 28.894-14.415 71.6-14.415 103.726 0 53.379 10.121 137.733 10.121 137.733l45.842-36.079c0-17.02 0-73.159 0-101.654.001-32.126-3.787-64.833-8.691-93.726z" fill="#e0bba4"/><path d="m179.555 224.515c0-32.127 1.924-64.833 4.415-93.726v-10l-10.723 10c-4.904 28.894-8.692 61.6-8.692 93.726 0 53.379.121 151.266.121 151.266l60.842.317v-49.929l-45.842 26.079s-.121-74.353-.121-127.733z" fill="#cf9875"/><path d="m216.826 130.789c-9.01-53.086-21.79-93.289-21.79-93.289s-11.067 41.034-11.067 93.289z" fill="#e9edf1"/><path d="m195.037 37.5s-12.78 40.203-21.79 93.289h10.723c4.575-53.086 11.067-93.289 11.067-93.289z" fill="#c8d2dc"/><path d="m399.717 199.435-32.857-10c-2.491 28.894-14.415 71.6-14.415 103.726 0 53.379 3.692 87.583 3.692 87.583l52.271 14.736s0-73.824 0-102.319c.001-32.126-3.788-64.832-8.691-93.726z" fill="#e0bba4"/><path d="m362.445 293.162c0-32.127 1.924-64.833 4.415-93.726v-10l-10.723 10c-4.904 28.894-8.692 61.6-8.692 93.726 0 53.379.121 117.25.121 117.25l60.842.317v-15.248l-45.842-26.079s-.121-22.861-.121-76.24z" fill="#cf9875"/><path d="m399.717 199.435c-9.01-53.086-21.79-93.289-21.79-93.289s-11.067 41.034-11.067 93.289z" fill="#e9edf1"/><path d="m377.927 106.146s-12.78 40.203-21.79 93.289h10.723c4.576-53.086 11.067-93.289 11.067-93.289z" fill="#c8d2dc"/><path d="m338.753 130.789-32.857-10c-2.491 28.894-14.415 71.6-14.415 103.726 0 53.379 3.692 121.599 3.692 121.599l52.271 14.736s0-107.84 0-136.335c.001-32.126-3.787-64.833-8.691-93.726z" fill="#e0bba4"/><path d="m301.482 224.515c0-32.127 1.924-64.833 4.415-93.726v-10l-10.723 10c-4.904 28.894-8.692 61.6-8.692 93.726 0 53.379.121 151.266.121 151.266l60.842.317v-15.248l-45.842-26.079s-.121-56.876-.121-110.256z" fill="#cf9875"/><path d="m338.753 130.789c-9.01-53.086-21.79-93.289-21.79-93.289s-11.067 41.034-11.067 93.289z" fill="#e9edf1"/><path d="m316.963 37.5s-12.78 40.203-21.79 93.289h10.723c4.576-53.086 11.067-93.289 11.067-93.289z" fill="#c8d2dc"/><path d="m236.099 489.5v-13.957s9.487-8.109 19.901-8.109 19.901 8.109 19.901 8.109v13.957l-20.161 5z" fill="#b36d3c"/><path d="m236.099 489.5h39.802v15h-39.802z" fill="#67463e"/><path d="m118.713 401.929-5.489 33.85 142.776-47.57 152.287 48.433v-26.18l-152.287-86.633z" fill="#e9edf1"/><path d="m118.713 425.145v-23.216l-15 8.533v41.18l152.287-63.433 152.287 63.433v-15l-149.404-62.232c-1.846-.769-3.922-.769-5.768 0l-129.558 53.965c-2.304.961-4.844-.733-4.844-3.23z" fill="#c8d2dc"/><path d="m134.073 76.146c-1.847 0-3.609.35-5.243.961-1.119 2.1-5.757 8.494-5.757 11.039 0 8.284 6.716 15 15 15 1.847 0 7.609-4.35 9.243-4.961 1.119-2.1 1.757-4.494 1.757-7.039 0-8.284-6.715-15-15-15z" fill="#d97b7b"/><path d="m127.073 84.146c0-2.545.639-4.939 1.757-7.039-5.695 2.128-9.757 7.602-9.757 14.039 0 8.284 6.716 15 15 15 5.739 0 10.721-3.226 13.243-7.961-1.634.611-3.396.961-5.243.961-8.284 0-15-6.715-15-15z" fill="#d16161"/><path d="m195.037 7.5c-1.847 0-3.609.35-5.243.961-1.119 2.1-5.757 8.494-5.757 11.039 0 8.284 6.716 15 15 15 1.847 0 7.609-4.35 9.243-4.961 1.119-2.1 1.757-4.494 1.757-7.039 0-8.284-6.716-15-15-15z" fill="#d97b7b"/><path d="m188.037 15.5c0-2.545.639-4.939 1.757-7.039-5.695 2.128-9.757 7.602-9.757 14.039 0 8.284 6.716 15 15 15 5.739 0 10.721-3.226 13.243-7.961-1.634.611-3.396.961-5.243.961-8.285 0-15-6.716-15-15z" fill="#d16161"/><path d="m316.963 7.5c-1.847 0-3.609.35-5.243.961-1.119 2.1-5.757 8.494-5.757 11.039 0 8.284 6.716 15 15 15 1.847 0 7.609-4.35 9.243-4.961 1.119-2.1 1.757-4.494 1.757-7.039 0-8.284-6.715-15-15-15z" fill="#d97b7b"/><path d="m309.963 15.5c0-2.545.639-4.939 1.757-7.039-5.695 2.128-9.757 7.602-9.757 14.039 0 8.284 6.716 15 15 15 5.739 0 10.721-3.226 13.243-7.961-1.634.611-3.396.961-5.243.961-8.284 0-15-6.716-15-15z" fill="#d16161"/><path d="m377.927 76.146c-1.847 0-3.609.35-5.243.961-1.119 2.1-5.757 8.494-5.757 11.039 0 8.284 6.716 15 15 15 1.847 0 7.609-4.35 9.243-4.961 1.119-2.1 1.757-4.494 1.757-7.039 0-8.284-6.716-15-15-15z" fill="#d97b7b"/><path d="m370.927 84.146c0-2.545.639-4.939 1.757-7.039-5.695 2.128-9.757 7.602-9.757 14.039 0 8.284 6.716 15 15 15 5.739 0 10.721-3.226 13.243-7.961-1.634.611-3.396.961-5.243.961-8.284 0-15-6.715-15-15z" fill="#d16161"/><path d="m164.615 267.793-45.999 19.123-6.333 18.123 6.316 11.884 46.016-19.13 7.504-7.288 7.504 1.05 45.895-19.13-.008-29.998-45.895 19.13-8.525 6.236z" fill="#cf9875"/><path d="m118.616 286.916-15.025 6.246v30l15.008-6.239c-.005-7.542-.008-15.495-.008-23.761 0-2.08.009-4.163.025-6.246z" fill="#bd7f54"/><path d="m347.444 267.827-45.955-19.15-6.326 12.869 6.309 17.153 45.972 19.157 7.496-1.048 7.497 7.297 45.85 19.057-.007-30.034-45.851-19.057-8.517-.854z" fill="#cf9875"/><g fill="#bd7f54"><path d="m301.489 248.677-15.01-6.255v30.029l14.993 6.248c-.005-7.553-.008-15.517-.008-23.791.001-2.082.009-4.159.025-6.231z"/><path d="m362.447 304.105c-.001-3.495-.002-7.142-.002-10.943 0-6.35.075-12.724.215-19.085l-15.216-6.249v30.029z"/><path d="m164.615 267.793v30l15.008-6.239c-.005-7.542-.008-29.998-.008-29.998z"/></g></g><g><g><path d="m427.741 512h-241.028c-4.143 0-7.5-3.358-7.5-7.5s3.357-7.5 7.5-7.5h6.53l21.292-83.395-43.766 18.23-18.679 65.165h4.623c4.143 0 7.5 3.358 7.5 7.5s-3.357 7.5-7.5 7.5h-72.454c-2.449 0-4.744-1.196-6.147-3.203-1.402-2.007-1.737-4.573-.896-6.873l18.877-51.61v-157.152c0-29.496 3.09-59.289 7.313-86.232-3.999-.161-7.192-3.455-7.192-7.494 0-4.142 3.357-7.5 7.5-7.5h2.204c6.582-36.978 14.739-66.863 18.688-80.379-7.688-3.582-13.031-11.383-13.031-20.41 0-12.407 10.094-22.5 22.5-22.5s22.5 10.093 22.5 22.5c0 9.026-5.343 16.828-13.031 20.41 3.382 11.575 9.85 35.155 15.771 64.914 1.233-13.142 2.896-25.967 4.807-38.201-3.883-.284-6.944-3.524-6.944-7.479 0-4.142 3.357-7.5 7.5-7.5h1.948c6.599-37.042 14.88-66.885 18.903-80.398-7.668-3.59-12.991-11.38-12.991-20.391 0-12.407 10.094-22.5 22.5-22.5s22.5 10.093 22.5 22.5c0 9.01-5.323 16.801-12.991 20.391 4.024 13.514 12.305 43.356 18.903 80.398h1.966c4.143 0 7.5 3.358 7.5 7.5 0 3.961-3.07 7.205-6.961 7.481 1.751 11.218 3.297 22.941 4.491 34.942 6.685-14.537 14.514-34.311 18.187-53.713.67-3.541 3.765-6.105 7.369-6.105s6.699 2.564 7.369 6.105c3.679 19.434 11.505 39.202 18.185 53.726 1.196-12.012 2.74-23.729 4.493-34.957-3.883-.285-6.944-3.525-6.944-7.48 0-4.142 3.357-7.5 7.5-7.5h1.949c6.599-37.042 14.879-66.885 18.903-80.398-7.668-3.59-12.991-11.38-12.991-20.391 0-12.407 10.094-22.5 22.5-22.5s22.5 10.093 22.5 22.5c0 9.01-5.323 16.801-12.991 20.391 4.023 13.514 12.305 43.356 18.903 80.398h1.966c4.143 0 7.5 3.358 7.5 7.5 0 3.961-3.07 7.205-6.962 7.481 1.909 12.229 3.574 25.063 4.807 38.2 5.922-29.759 12.39-53.339 15.771-64.914-7.688-3.582-13.031-11.383-13.031-20.41 0-12.407 10.094-22.5 22.5-22.5s22.5 10.093 22.5 22.5c0 9.034-5.353 16.842-13.052 20.419 3.913 13.516 12.076 43.608 18.646 80.37h2.283c4.143 0 7.5 3.358 7.5 7.5 0 4.062-3.229 7.37-7.261 7.496.519 3.297 1.021 6.639 1.502 10.008.585 4.101-2.266 7.899-6.366 8.484-4.094.582-7.899-2.265-8.483-6.366-.584-4.096-1.2-8.14-1.841-12.122h-30.821c-2.874 17.838-5.262 36.958-6.553 56.314l44.772 18.649c-.268-9.965-.883-20.359-1.839-31.028-.37-4.125 2.675-7.77 6.8-8.14 4.14-.366 7.771 2.675 8.14 6.801 1.363 15.202 2.054 29.882 2.054 43.63v157.152l18.877 51.61c.841 2.3.506 4.866-.896 6.873-1.406 2.007-3.701 3.203-6.15 3.203zm-52.227-15h41.498l-14.497-39.638-43.564-18.146zm-56.757 0h41.153l-18.68-65.165-43.766-18.23zm-35.356 0h19.874l-23.135-90.61-24.14-10.056-24.141 10.056-23.134 90.61h19.874v-21.458c0-2.193.96-4.276 2.627-5.701 1.187-1.014 11.962-9.908 24.774-9.908s23.588 8.894 24.774 9.908c1.667 1.425 2.627 3.508 2.627 5.701zm-39.802 0h24.803v-17.655c-3.088-1.989-7.906-4.412-12.401-4.412-4.491 0-9.305 2.418-12.401 4.414v17.653zm-148.611 0h41.498l16.563-57.784-43.564 18.146zm290.439-63.004 15.481 6.448v-25.551l-15.481-8.807zm-274.335-19.103v25.551l15.481-6.448v-27.91zm243.853 6.406 15.481 6.449v-30.195l-15.481-8.807zm-213.372-23.747v30.195l15.481-6.449v-32.554zm182.891 11.051 15.481 6.448v-34.839l-15.481-8.807zm-152.409-28.391v34.839l15.481-6.448v-37.198zm121.926 15.693 15.482 6.449v-39.483l-15.482-8.808zm-91.445-33.033v39.483l15.482-6.449v-41.841zm149.358 6.879 49.015 27.884v-69.423l-45.963-19.145v33.724c0 4.142-3.357 7.5-7.5 7.5s-7.5-3.358-7.5-7.5v-39.971l-45.964-19.146v53.132l56.372 32.069c.549.232 1.065.527 1.54.876zm-240.802-41.538v69.422l45.963-26.147v-62.42zm144.908 52.496c.98 0 1.961.192 2.884.577l20.098 8.371v-44.126l-22.982-13.074-22.981 13.074v44.126l20.098-8.371c.922-.384 1.903-.577 2.883-.577zm-83.945-77.889v60.135l45.964-26.148v-53.132zm91.445 16.647 15.481 8.807v-80.706c-15.718-5.572-30.208-5.565-45.963.006v80.7l15.481-8.807v-20.511h-.237c-4.143 0-7.5-3.358-7.5-7.5s3.357-7.5 7.5-7.5h.237v-.237c0-4.142 3.357-7.5 7.5-7.5s7.5 3.358 7.5 7.5v.237h.237c4.143 0 7.5 3.358 7.5 7.5s-3.357 7.5-7.5 7.5h-.236zm-152.408-21.254v13.75l45.963-19.145c-.004-4.54-.086-9.096-.236-13.652zm243.853-5.395 45.963 19.145v-13.751l-45.727-19.046c-.15 4.559-.232 9.111-.236 13.652zm-182.89-19.999v13.751l45.964-19.146v-45c0-28.72-3.109-57.842-7.33-84.136h-31.298c-4.224 26.306-7.336 55.426-7.336 84.136v34.145l20.106-8.375c3.823-1.592 8.215.216 9.808 4.04 1.592 3.824-.217 8.214-4.04 9.807zm121.926-5.394 45.964 19.146v-13.751l-45.964-19.146zm-175.3-60.489c-3.796 23.56-6.743 49.333-7.435 74.963l44.773-18.649c-1.289-19.366-3.675-38.474-6.548-56.314zm175.3 30.489 45.964 19.146v-34.145c0-28.72-3.109-57.842-7.33-84.136h-31.298c-4.224 26.306-7.336 55.426-7.336 84.136zm-61.422-35.188c.299 6.709.46 13.452.46 20.188v9.389c15.513-4.554 30.478-4.558 45.963-.008v-9.381c0-6.736.161-13.479.46-20.188-2.775-4.885-14.68-26.483-23.441-52.432-8.763 25.948-20.667 47.547-23.442 52.432zm132.551-10.301h25.671c-1.604-8.797-3.292-17.178-4.98-25h-15.715c-1.686 7.818-3.372 16.201-4.976 25zm-243.853 0h25.64c-1.604-8.804-3.29-17.178-4.976-25h-15.688c-1.686 7.818-3.373 16.201-4.976 25zm252.209-40h8.949c-1.57-6.665-3.087-12.731-4.479-18.083-1.39 5.351-2.903 11.415-4.47 18.083zm-243.854 0h8.928c-1.565-6.655-3.077-12.714-4.465-18.059-1.387 5.346-2.898 11.403-4.463 18.059zm174.281-28.647h26.148c-1.607-8.805-3.304-17.185-5.003-25h-16.143c-1.699 7.815-3.395 16.195-5.002 25zm-121.927 0h26.148c-1.607-8.805-3.305-17.185-5.003-25h-16.143c-1.698 7.815-3.395 16.195-5.002 25zm195.961-39.643c-4.136 0-7.5 3.365-7.5 7.5 0 4.136 3.364 7.5 7.5 7.5s7.5-3.364 7.5-7.5c0-4.135-3.364-7.5-7.5-7.5zm-243.854 0c-4.136 0-7.5 3.365-7.5 7.5 0 4.136 3.364 7.5 7.5 7.5s7.5-3.364 7.5-7.5c0-4.135-3.364-7.5-7.5-7.5zm178.238-.357h9.313c-1.633-6.865-3.213-13.096-4.657-18.557-1.445 5.463-3.024 11.691-4.656 18.557zm-121.928 0h9.313c-1.634-6.865-3.214-13.096-4.658-18.557-1.443 5.463-3.021 11.691-4.655 18.557zm126.581-68.289c-4.136 0-7.5 3.364-7.5 7.5s3.364 7.5 7.5 7.5 7.5-3.364 7.5-7.5-3.364-7.5-7.5-7.5zm-121.928 0c-4.136 0-7.5 3.364-7.5 7.5s3.364 7.5 7.5 7.5 7.5-3.364 7.5-7.5-3.364-7.5-7.5-7.5zm60.964 431.493c-4.143 0-7.5-3.358-7.5-7.5v-6.873h-.237c-4.143 0-7.5-3.358-7.5-7.5s3.357-7.5 7.5-7.5h.237v-.237c0-4.142 3.357-7.5 7.5-7.5s7.5 3.358 7.5 7.5v.237h.237c4.143 0 7.5 3.358 7.5 7.5s-3.357 7.5-7.5 7.5h-.237v6.873c0 4.142-3.357 7.5-7.5 7.5zm122.086-80.994c-4.143 0-7.5-3.358-7.5-7.5v-13.622c0-4.142 3.357-7.5 7.5-7.5s7.5 3.358 7.5 7.5v13.622c0 4.142-3.357 7.5-7.5 7.5zm-244.172 0c-4.143 0-7.5-3.358-7.5-7.5v-13.622c0-4.142 3.357-7.5 7.5-7.5s7.5 3.358 7.5 7.5v13.622c0 4.142-3.357 7.5-7.5 7.5zm183.05-29.489c-4.143 0-7.5-3.358-7.5-7.5v-13.623c0-4.142 3.357-7.5 7.5-7.5s7.5 3.358 7.5 7.5v13.623c0 4.142-3.358 7.5-7.5 7.5zm-121.928 0c-4.143 0-7.5-3.358-7.5-7.5v-13.623c0-4.142 3.357-7.5 7.5-7.5s7.5 3.358 7.5 7.5v13.623c0 4.142-3.357 7.5-7.5 7.5z"/></g></g></g></svg>