<svg id="Layer_2_copy_2" height="512" viewBox="0 0 64 64" width="512" xmlns="http://www.w3.org/2000/svg" data-name="Layer 2 copy 2"><path d="m40 5v4h-16v-4a3.656 3.656 0 0 1 .13-1 3.992 3.992 0 0 1 3.87-3h8a3.992 3.992 0 0 1 3.87 3 3.656 3.656 0 0 1 .13 1z" fill="#c86a25"/><path d="m13 9h38v8h-38z" fill="#e29344"/><path d="m5 17 3 6v40h14v-30a8 8 0 0 1 8-8h4a8 8 0 0 1 8 8v30h14v-40l3-6z" fill="#fdb25a"/><g opacity=".2"><path d="m13 14h38v3h-38z" fill="#58595b"/></g><g opacity=".2"><path d="m40 7v2h-16v-2a3.656 3.656 0 0 1 .13-1h15.74a3.656 3.656 0 0 1 .13 1z" fill="#58595b"/></g><g opacity=".2"><path d="m8 56h14v7h-14z" fill="#58595b"/></g><g opacity=".2"><path d="m42 56h14v7h-14z" fill="#58595b"/></g><path d="m8 38h14v10h-14z" fill="#c86a25"/><path d="m42 38h14v10h-14z" fill="#c86a25"/><g fill="#2d0512"><path d="m46 34a1 1 0 0 0 1 1h1a1 1 0 0 0 0-2h-1a1 1 0 0 0 -1 1z"/><path d="m50 34a1 1 0 0 0 1 1h1a1 1 0 0 0 0-2h-1a1 1 0 0 0 -1 1z"/><path d="m57 23.236 2.895-5.789a1 1 0 0 0 -.895-1.447h-7v-11h-2v3h-3a1 1 0 0 0 0 2h3v6h-36v-6h29a1 1 0 0 0 0-2h-2v-3a5.006 5.006 0 0 0 -5-5h-8a5.006 5.006 0 0 0 -5 5v3h-9v-3h-2v11h-7a1 1 0 0 0 -.895 1.447l2.895 5.789v2.764a1 1 0 0 0 2 0v-3a1 1 0 0 0 -.105-.447l-2.277-4.553h50.764l-2.276 4.553a1 1 0 0 0 -.106.447v14h-12v-4a9.01 9.01 0 0 0 -9-9h-4a9.01 9.01 0 0 0 -9 9v4h-12v-7a1 1 0 0 0 -2 0v32h-7v2h64v-2h-7zm-32-18.236a3 3 0 0 1 3-3h8a3 3 0 0 1 3 3v3h-14zm30 34v8h-12v-8zm-34 0v8h-12v-8zm-12 10h12v13h-12zm34 13v-7a1 1 0 0 0 -2 0v7h-18v-29a7.008 7.008 0 0 1 7-7h4a7.008 7.008 0 0 1 7 7v18a1 1 0 0 0 2 0v-2h12v13z"/><path d="m16 26a1 1 0 0 0 0-2h-1.875a1 1 0 0 0 0 2z"/><path d="m16 55h-2a1 1 0 0 0 0 2h2a1 1 0 0 0 0-2z"/><path d="m50 55h-2a1 1 0 0 0 0 2h2a1 1 0 0 0 0-2z"/><path d="m50 24h-2a1 1 0 0 0 0 2h2a1 1 0 0 0 0-2z"/><path d="m42 13a1 1 0 0 0 0 2h2a1 1 0 0 0 0-2z"/><path d="m20 13a1 1 0 0 0 0 2h2a1 1 0 0 0 0-2z"/></g></svg>